<svg width="339" height="132" viewBox="0 0 339 132" fill="none" xmlns="http://www.w3.org/2000/svg">
<g clip-path="url(#clip0_403_335)">
<path d="M110.488 47.9782V57.8495H113.061L114.758 49.5611H122.646V84.4576L117.827 84.84V86.1473H133.492V84.84L128.672 84.4576V49.5611H136.614L138.258 57.8495H140.83V47.9782H110.484H110.488ZM157.429 50.486H158.085L165.536 72.4608H149.978L157.429 50.486ZM156.388 47.9782L143.408 84.4576L138.642 84.84V86.1473H150.693V84.84L145.927 84.4576L149.38 74.0438H166.085L169.591 84.4576L164.825 84.84V86.1473H181.04V84.84L176.22 84.4576L163.293 47.9782H156.392H156.388ZM182.188 47.9782V49.2855L187.007 49.7212V84.4576L182.188 84.84V86.1473H210.506V76.3338H207.934L206.29 84.6221H193.033V49.7257L197.852 49.2899V47.9826H182.188V47.9782ZM213.847 47.9782V49.2855L218.667 49.7212V84.4576L213.847 84.84V86.1473H243.645V76.3338H241.072L239.428 84.5688H224.693V49.5611H239.098L240.741 57.8495H243.261V47.9782H213.847ZM276.453 47.9782V49.2855L281.272 49.7212V78.1835L260.35 47.9737H249.724V49.2276L254.544 49.6634V84.4531L249.724 84.8355V86.1428H261.445V84.8355L256.679 84.4531V53.2073L279.463 86.1428H283.407V49.7168L288.173 49.281V47.9737H276.453V47.9782ZM292.064 47.9782V57.8495H294.637L296.334 49.5611H304.222V84.4576L299.403 84.84V86.1473H315.067V84.84L310.248 84.4576V49.5611H318.19L319.833 57.8495H322.406V47.9782H292.059H292.064Z" fill="white"/>
<path d="M96.1724 86.1829H101.211V81.1671H96.1724V86.1829ZM95.8999 48.0137L97.8161 75.7112H99.4599L101.434 48.0137H95.9044H95.8999Z" fill="white"/>
<path d="M77.4927 62.9541C79.5742 62.9541 81.1911 63.6167 82.3391 64.9462C83.487 66.2757 84.1213 68.1744 84.2285 70.6422H70.1495C70.4041 68.1699 71.1634 66.2712 72.423 64.9462C73.6826 63.6211 75.371 62.9541 77.4883 62.9541M88.99 72.0606C88.99 67.952 87.9582 64.7372 85.8946 62.4072C83.831 60.0817 80.9901 58.9167 77.3766 58.9167C74.8931 58.9167 72.6732 59.4992 70.7212 60.6597C68.7648 61.8247 67.2506 63.461 66.1741 65.5687C65.0976 67.6764 64.5572 70.0953 64.5572 72.821C64.5572 77.1119 65.79 80.4735 68.2556 82.9102C70.7212 85.3469 74.0891 86.5653 78.3637 86.5653C80.2621 86.5653 82.1247 86.254 83.9516 85.6404C85.7784 85.0223 87.3105 84.1864 88.5523 83.1325L86.8549 79.2596C84.3714 81.2605 81.5976 82.2566 78.529 82.2566C73.3074 82.2566 70.4934 79.4419 70.0959 73.8037H88.9945V72.0606H88.99ZM45.7747 81.6563H35.1484V68.8991H45.7747C48.5485 68.8991 50.6032 69.4372 51.9387 70.5088C53.2698 71.5804 53.9398 73.2078 53.9398 75.3911C53.9398 77.5744 53.2832 79.1173 51.9655 80.1356C50.6523 81.1538 48.5887 81.6607 45.7747 81.6607M35.1484 52.2691H44.8992C47.6373 52.2691 49.6741 52.7582 51.0052 53.7409C52.3363 54.7236 53.0063 56.231 53.0063 58.2675C53.0063 62.3405 50.3039 64.3726 44.8992 64.3726H35.1484V52.2691ZM52.3497 66.3913C54.2838 65.6621 55.789 64.5549 56.87 63.0653C57.9464 61.5757 58.4869 59.8149 58.4869 57.7783C58.4869 54.6169 57.3658 52.1535 55.119 50.3882C52.8723 48.6274 49.759 47.7425 45.7792 47.7425H29.6187V86.1829H46.3777C50.4647 86.1829 53.654 85.2669 55.9364 83.4304C58.2189 81.594 59.3579 79.0239 59.3579 75.7157C59.3579 73.319 58.746 71.3181 57.5221 69.7173C56.2982 68.1166 54.5741 67.0094 52.3452 66.3913" fill="white"/>
<path d="M17.8445 39.5742C16.4733 39.5742 14.834 38.6271 12.7972 36.973L12.2656 37.5021C13.9272 39.5253 14.8786 41.1572 14.8786 42.5267C14.8786 43.8918 13.9272 45.5237 12.2656 47.5513L12.7972 48.0804C14.8295 46.4219 16.4688 45.4792 17.8445 45.4792C19.2203 45.4792 20.8551 46.4263 22.8919 48.0804L23.4234 47.5513C21.7574 45.5281 20.8104 43.8963 20.8104 42.5267C20.8104 41.1572 21.7618 39.5298 23.4234 37.5021L22.8919 36.973C20.8596 38.6316 19.2203 39.5787 17.8445 39.5787" fill="white"/>
<path d="M233.05 64.3859C231.991 64.3859 230.723 63.6567 229.155 62.3761L228.744 62.7851C230.031 64.3503 230.763 65.6087 230.763 66.6625C230.763 67.7164 230.031 68.9792 228.744 70.5399L229.155 70.949C230.727 69.6684 231.991 68.9392 233.05 68.9392C234.109 68.9392 235.377 69.6684 236.945 70.949L237.356 70.5399C236.07 68.9747 235.337 67.7164 235.337 66.6625C235.337 65.6087 236.07 64.3459 237.356 62.7851L236.945 62.3761C235.373 63.6567 234.109 64.3859 233.05 64.3859Z" fill="white"/>
</g>
<defs>
<clipPath id="clip0_403_335">
<rect width="339" height="132" fill="white"/>
</clipPath>
</defs>
</svg>
