<svg width="32" height="32" viewBox="0 0 32 32" fill="none" xmlns="http://www.w3.org/2000/svg">
<g clip-path="url(#clip0_515_300)">
<path d="M26.1377 12.16L25.8945 12.0064V11.9808V11.7248C25.8561 9.8688 24.5633 8.256 22.7713 7.7696C22.4257 7.68 22.0545 7.6288 21.6961 7.6288H21.3505V7.616L21.2097 7.3216C19.4945 3.6992 15.1681 2.1504 11.5457 3.8656C10.3681 4.416 9.36972 5.2736 8.64012 6.3488C8.58892 6.4256 8.53772 6.5024 8.48652 6.5792C8.43532 6.656 8.39692 6.72 8.35852 6.7968C8.33292 6.8352 8.30732 6.8736 8.29452 6.9248C8.25612 7.0016 8.21772 7.0784 8.16652 7.1552C8.14092 7.1936 8.12812 7.232 8.10252 7.2832L7.98732 7.5136V7.5264L7.73132 7.5776C5.63212 7.9616 3.94252 9.536 3.40492 11.6096C2.61132 14.5792 4.36492 17.6256 7.33452 18.432L9.66412 19.0592L9.77932 19.9936L10.3169 24.3712C9.29292 24.0768 8.26892 23.7568 7.25772 23.4368C8.25612 27.2896 12.1857 29.5936 16.0385 28.5952C17.3185 28.2624 18.4705 27.5968 19.3921 26.6496C18.3681 26.432 17.3569 26.2016 16.3457 25.9584L17.7281 24.1152L18.2145 23.4752L18.4833 23.1168L18.4961 23.0912L19.5457 21.6832L21.7473 22.272C23.1937 22.6688 24.7297 22.464 26.0353 21.7216C27.3281 20.992 28.2625 19.776 28.6337 18.3424C29.2481 15.9872 28.2241 13.4528 26.1377 12.16ZM12.6721 25.024C12.3265 24.9344 11.9809 24.832 11.6353 24.7424L11.0977 20.544L10.9569 19.4048L13.9521 20.2112L13.5937 21.5808L12.6721 25.024ZM17.4209 22.3872L16.9729 22.976L16.7553 23.2576L16.5761 23.5008L14.9761 25.6384C14.6305 25.5488 14.2849 25.4592 13.9393 25.3696L14.8225 22.08L15.2321 20.544L18.2145 21.3376L17.4209 22.3872ZM25.1393 17.0496C24.6657 18.7904 22.8353 19.84 21.0561 19.3536L16.8705 18.24L12.3393 17.024L9.19052 16.1792C7.43692 15.7056 6.40012 13.9136 6.87372 12.16C7.41132 10.1376 8.97292 9.4592 10.3297 9.6256C10.3297 9.6256 10.3297 9.6128 10.3425 9.6128C10.3553 9.5744 10.3681 9.536 10.3809 9.4976C10.3809 9.4848 10.3937 9.472 10.3937 9.4592C10.4065 9.4336 10.4065 9.408 10.4193 9.3824C10.4321 9.3568 10.4449 9.3184 10.4577 9.2928C10.4833 9.2416 10.4961 9.1904 10.5217 9.1392L10.5345 9.1136C10.5345 9.1008 10.5345 9.1008 10.5473 9.088L10.5857 8.9984C10.5985 8.9728 10.5985 8.96 10.6113 8.9344C10.6241 8.9088 10.6369 8.8704 10.6497 8.8448C10.6497 8.832 10.6625 8.832 10.6625 8.8192L10.6753 8.8064L10.7009 8.7552C10.7137 8.7296 10.7265 8.704 10.7393 8.6784C10.7393 8.6784 10.7393 8.6656 10.7521 8.6656L10.7777 8.6144L10.8033 8.576C10.8033 8.5632 10.8161 8.5504 10.8161 8.5504C10.8289 8.5248 10.8417 8.512 10.8545 8.4992C10.8673 8.4736 10.8801 8.448 10.9057 8.4224C10.9185 8.3968 10.9441 8.3584 10.9569 8.3328C11.0593 8.1792 11.1617 8.0384 11.2641 7.9104C11.2897 7.8848 11.3025 7.8592 11.3281 7.8336C11.4177 7.7312 11.4945 7.6416 11.5841 7.5392C11.6097 7.5136 11.6225 7.488 11.6481 7.4752C11.8401 7.2832 12.0577 7.104 12.2881 6.9504L12.3649 6.8992L12.3905 6.8864C12.4161 6.8736 12.4417 6.848 12.4673 6.8352C12.5057 6.8096 12.5441 6.784 12.5825 6.7712C12.7617 6.6688 12.9409 6.5792 13.1329 6.5152L13.1969 6.4896C13.2353 6.4768 13.2737 6.464 13.3249 6.4512C13.3633 6.4384 13.4145 6.4256 13.4657 6.4L13.5425 6.3744C13.5937 6.3616 13.6577 6.3488 13.7089 6.336C13.8625 6.2976 14.0033 6.272 14.1569 6.2464C14.1953 6.2464 14.2337 6.2336 14.2721 6.2336C14.3617 6.2208 14.4513 6.2208 14.5537 6.208C14.6049 6.208 14.6561 6.208 14.7201 6.208C15.1809 6.1952 15.6417 6.2592 16.0897 6.3744C17.3441 6.7072 18.3041 7.3984 18.9569 8.4352C19.1489 8.7424 19.3025 9.0752 19.4177 9.408C19.4305 9.4336 19.4433 9.472 19.4433 9.4976C19.4433 9.5104 19.4561 9.5232 19.4561 9.536C19.4561 9.5488 19.4689 9.5744 19.4817 9.6C19.4945 9.6384 19.5073 9.6768 19.5073 9.7152C19.5201 9.7408 19.5201 9.7536 19.5201 9.7792C19.5201 9.792 19.5329 9.8304 19.5457 9.856C19.5585 9.8816 19.5585 9.8944 19.5585 9.9072C19.5585 9.92 19.5585 9.92 19.5585 9.9328C20.0065 9.7664 20.4929 9.7536 20.9537 9.8688C21.7601 10.0864 22.4385 10.688 22.7457 11.4304C22.9249 11.8912 22.9505 12.4032 22.8097 12.8768C22.8097 12.8896 22.8097 12.9024 22.7969 12.9024C22.8097 12.9024 22.8225 12.9152 22.8353 12.9152C24.6273 13.376 25.6385 15.1936 25.1393 17.0496Z" fill="white"/>
</g>
<defs>
<clipPath id="clip0_515_300">
<rect width="32" height="32" fill="white"/>
</clipPath>
</defs>
</svg>
