<svg width="32" height="32" viewBox="0 0 32 32" fill="none" xmlns="http://www.w3.org/2000/svg">
<g clip-path="url(#clip0_515_124)">
<path d="M27.9999 6.66667C26.5199 6.2 24.8933 6 23.3333 6C20.7333 6 17.9333 6.53333 15.9999 8C14.0666 6.53333 11.2666 6 8.66659 6C6.06659 6 3.26659 6.53333 1.33325 8V27.5333C1.33325 27.8667 1.66659 28.2 1.99992 28.2C2.13325 28.2 2.19992 28.1333 2.33325 28.1333C4.13325 27.2667 6.73325 26.6667 8.66659 26.6667C11.2666 26.6667 14.0666 27.2 15.9999 28.6667C17.7999 27.5333 21.0666 26.6667 23.3333 26.6667C25.5333 26.6667 27.7999 27.0667 29.6666 28.0667C29.7999 28.1333 29.8666 28.1333 29.9999 28.1333C30.3333 28.1333 30.6666 27.8 30.6666 27.4667V8C29.8666 7.4 28.9999 7 27.9999 6.66667ZM27.9999 24.6667C26.5333 24.2 24.9333 24 23.3333 24C21.0666 24 17.7999 24.8667 15.9999 26V10.6667C17.7999 9.53333 21.0666 8.66667 23.3333 8.66667C24.9333 8.66667 26.5333 8.86667 27.9999 9.33333V24.6667Z" fill="white"/>
<path d="M23.3333 14C24.5066 14 25.6399 14.12 26.6666 14.3467V12.32C25.6133 12.12 24.4799 12 23.3333 12C21.0666 12 19.0133 12.3867 17.3333 13.1067V15.32C18.8399 14.4667 20.9333 14 23.3333 14Z" fill="white"/>
<path d="M17.3333 16.6533V18.8667C18.8399 18.0133 20.9333 17.5467 23.3333 17.5467C24.5066 17.5467 25.6399 17.6667 26.6666 17.8933V15.8667C25.6133 15.6667 24.4799 15.5467 23.3333 15.5467C21.0666 15.5467 19.0133 15.9467 17.3333 16.6533Z" fill="white"/>
<path d="M23.3333 19.1067C21.0666 19.1067 19.0133 19.4933 17.3333 20.2133V22.4267C18.8399 21.5733 20.9333 21.1067 23.3333 21.1067C24.5066 21.1067 25.6399 21.2267 26.6666 21.4533V19.4267C25.6133 19.2133 24.4799 19.1067 23.3333 19.1067Z" fill="white"/>
</g>
<defs>
<clipPath id="clip0_515_124">
<rect width="32" height="32" fill="white"/>
</clipPath>
</defs>
</svg>
